<?xml version="1.0" encoding="utf-8" standalone="no"?>
<!DOCTYPE svg PUBLIC "-//W3C//DTD SVG 1.1//EN"
  "http://www.w3.org/Graphics/SVG/1.1/DTD/svg11.dtd">
<svg xmlns:xlink="http://www.w3.org/1999/xlink" width="288.498437pt" height="182.648106pt" viewBox="0 0 288.498437 182.648106" xmlns="http://www.w3.org/2000/svg" version="1.1">
 <metadata>
  <rdf:RDF xmlns:dc="http://purl.org/dc/elements/1.1/" xmlns:cc="http://creativecommons.org/ns#" xmlns:rdf="http://www.w3.org/1999/02/22-rdf-syntax-ns#">
   <cc:Work>
    <dc:type rdf:resource="http://purl.org/dc/dcmitype/StillImage"/>
    <dc:date>2024-02-29T18:18:03.411248</dc:date>
    <dc:format>image/svg+xml</dc:format>
    <dc:creator>
     <cc:Agent>
      <dc:title>Matplotlib v3.7.2, https://matplotlib.org/</dc:title>
     </cc:Agent>
    </dc:creator>
   </cc:Work>
  </rdf:RDF>
 </metadata>
 <defs>
  <style type="text/css">*{stroke-linejoin: round; stroke-linecap: butt}</style>
 </defs>
 <g id="figure_1">
  <g id="patch_1">
   <path d="M 0 182.648106 
L 288.498437 182.648106 
L 288.498437 0 
L 0 0 
L 0 182.648106 
z
" style="fill: none"/>
  </g>
  <g id="axes_1">
   <g id="patch_2">
    <path d="M 46.965625 145.091856 
L 270.165625 145.091856 
L 270.165625 36.371856 
L 46.965625 36.371856 
L 46.965625 145.091856 
z
" style="fill: none"/>
   </g>
   <g id="matplotlib.axis_1">
    <g id="xtick_1">
     <g id="line2d_1">
      <defs>
       <path id="me486f6df9d" d="M 0 0 
L 0 3.5 
" style="stroke: #000000; stroke-width: 0.8"/>
      </defs>
      <g>
       <use xlink:href="#me486f6df9d" x="59.03049" y="145.091856" style="stroke: #000000; stroke-width: 0.8"/>
      </g>
     </g>
     <g id="text_1">
      <!-- 0.0 -->
      <g transform="translate(51.078927 159.690294) scale(0.1 -0.1)">
       <defs>
        <path id="DejaVuSans-30" d="M 2034 4250 
Q 1547 4250 1301 3770 
Q 1056 3291 1056 2328 
Q 1056 1369 1301 889 
Q 1547 409 2034 409 
Q 2525 409 2770 889 
Q 3016 1369 3016 2328 
Q 3016 3291 2770 3770 
Q 2525 4250 2034 4250 
z
M 2034 4750 
Q 2819 4750 3233 4129 
Q 3647 3509 3647 2328 
Q 3647 1150 3233 529 
Q 2819 -91 2034 -91 
Q 1250 -91 836 529 
Q 422 1150 422 2328 
Q 422 3509 836 4129 
Q 1250 4750 2034 4750 
z
" transform="scale(0.015625)"/>
        <path id="DejaVuSans-2e" d="M 684 794 
L 1344 794 
L 1344 0 
L 684 0 
L 684 794 
z
" transform="scale(0.015625)"/>
       </defs>
       <use xlink:href="#DejaVuSans-30"/>
       <use xlink:href="#DejaVuSans-2e" x="63.623047"/>
       <use xlink:href="#DejaVuSans-30" x="95.410156"/>
      </g>
     </g>
    </g>
    <g id="xtick_2">
     <g id="line2d_2">
      <g>
       <use xlink:href="#me486f6df9d" x="89.192652" y="145.091856" style="stroke: #000000; stroke-width: 0.8"/>
      </g>
     </g>
     <g id="text_2">
      <!-- 2.5 -->
      <g transform="translate(81.24109 159.690294) scale(0.1 -0.1)">
       <defs>
        <path id="DejaVuSans-32" d="M 1228 531 
L 3431 531 
L 3431 0 
L 469 0 
L 469 531 
Q 828 903 1448 1529 
Q 2069 2156 2228 2338 
Q 2531 2678 2651 2914 
Q 2772 3150 2772 3378 
Q 2772 3750 2511 3984 
Q 2250 4219 1831 4219 
Q 1534 4219 1204 4116 
Q 875 4013 500 3803 
L 500 4441 
Q 881 4594 1212 4672 
Q 1544 4750 1819 4750 
Q 2544 4750 2975 4387 
Q 3406 4025 3406 3419 
Q 3406 3131 3298 2873 
Q 3191 2616 2906 2266 
Q 2828 2175 2409 1742 
Q 1991 1309 1228 531 
z
" transform="scale(0.015625)"/>
        <path id="DejaVuSans-35" d="M 691 4666 
L 3169 4666 
L 3169 4134 
L 1269 4134 
L 1269 2991 
Q 1406 3038 1543 3061 
Q 1681 3084 1819 3084 
Q 2600 3084 3056 2656 
Q 3513 2228 3513 1497 
Q 3513 744 3044 326 
Q 2575 -91 1722 -91 
Q 1428 -91 1123 -41 
Q 819 9 494 109 
L 494 744 
Q 775 591 1075 516 
Q 1375 441 1709 441 
Q 2250 441 2565 725 
Q 2881 1009 2881 1497 
Q 2881 1984 2565 2268 
Q 2250 2553 1709 2553 
Q 1456 2553 1204 2497 
Q 953 2441 691 2322 
L 691 4666 
z
" transform="scale(0.015625)"/>
       </defs>
       <use xlink:href="#DejaVuSans-32"/>
       <use xlink:href="#DejaVuSans-2e" x="63.623047"/>
       <use xlink:href="#DejaVuSans-35" x="95.410156"/>
      </g>
     </g>
    </g>
    <g id="xtick_3">
     <g id="line2d_3">
      <g>
       <use xlink:href="#me486f6df9d" x="119.354814" y="145.091856" style="stroke: #000000; stroke-width: 0.8"/>
      </g>
     </g>
     <g id="text_3">
      <!-- 5.0 -->
      <g transform="translate(111.403252 159.690294) scale(0.1 -0.1)">
       <use xlink:href="#DejaVuSans-35"/>
       <use xlink:href="#DejaVuSans-2e" x="63.623047"/>
       <use xlink:href="#DejaVuSans-30" x="95.410156"/>
      </g>
     </g>
    </g>
    <g id="xtick_4">
     <g id="line2d_4">
      <g>
       <use xlink:href="#me486f6df9d" x="149.516976" y="145.091856" style="stroke: #000000; stroke-width: 0.8"/>
      </g>
     </g>
     <g id="text_4">
      <!-- 7.5 -->
      <g transform="translate(141.565414 159.690294) scale(0.1 -0.1)">
       <defs>
        <path id="DejaVuSans-37" d="M 525 4666 
L 3525 4666 
L 3525 4397 
L 1831 0 
L 1172 0 
L 2766 4134 
L 525 4134 
L 525 4666 
z
" transform="scale(0.015625)"/>
       </defs>
       <use xlink:href="#DejaVuSans-37"/>
       <use xlink:href="#DejaVuSans-2e" x="63.623047"/>
       <use xlink:href="#DejaVuSans-35" x="95.410156"/>
      </g>
     </g>
    </g>
    <g id="xtick_5">
     <g id="line2d_5">
      <g>
       <use xlink:href="#me486f6df9d" x="179.679139" y="145.091856" style="stroke: #000000; stroke-width: 0.8"/>
      </g>
     </g>
     <g id="text_5">
      <!-- 10.0 -->
      <g transform="translate(168.546326 159.690294) scale(0.1 -0.1)">
       <defs>
        <path id="DejaVuSans-31" d="M 794 531 
L 1825 531 
L 1825 4091 
L 703 3866 
L 703 4441 
L 1819 4666 
L 2450 4666 
L 2450 531 
L 3481 531 
L 3481 0 
L 794 0 
L 794 531 
z
" transform="scale(0.015625)"/>
       </defs>
       <use xlink:href="#DejaVuSans-31"/>
       <use xlink:href="#DejaVuSans-30" x="63.623047"/>
       <use xlink:href="#DejaVuSans-2e" x="127.246094"/>
       <use xlink:href="#DejaVuSans-30" x="159.033203"/>
      </g>
     </g>
    </g>
    <g id="xtick_6">
     <g id="line2d_6">
      <g>
       <use xlink:href="#me486f6df9d" x="209.841301" y="145.091856" style="stroke: #000000; stroke-width: 0.8"/>
      </g>
     </g>
     <g id="text_6">
      <!-- 12.5 -->
      <g transform="translate(198.708488 159.690294) scale(0.1 -0.1)">
       <use xlink:href="#DejaVuSans-31"/>
       <use xlink:href="#DejaVuSans-32" x="63.623047"/>
       <use xlink:href="#DejaVuSans-2e" x="127.246094"/>
       <use xlink:href="#DejaVuSans-35" x="159.033203"/>
      </g>
     </g>
    </g>
    <g id="xtick_7">
     <g id="line2d_7">
      <g>
       <use xlink:href="#me486f6df9d" x="240.003463" y="145.091856" style="stroke: #000000; stroke-width: 0.8"/>
      </g>
     </g>
     <g id="text_7">
      <!-- 15.0 -->
      <g transform="translate(228.87065 159.690294) scale(0.1 -0.1)">
       <use xlink:href="#DejaVuSans-31"/>
       <use xlink:href="#DejaVuSans-35" x="63.623047"/>
       <use xlink:href="#DejaVuSans-2e" x="127.246094"/>
       <use xlink:href="#DejaVuSans-30" x="159.033203"/>
      </g>
     </g>
    </g>
    <g id="xtick_8">
     <g id="line2d_8">
      <g>
       <use xlink:href="#me486f6df9d" x="270.165625" y="145.091856" style="stroke: #000000; stroke-width: 0.8"/>
      </g>
     </g>
     <g id="text_8">
      <!-- 17.5 -->
      <g transform="translate(259.032812 159.690294) scale(0.1 -0.1)">
       <use xlink:href="#DejaVuSans-31"/>
       <use xlink:href="#DejaVuSans-37" x="63.623047"/>
       <use xlink:href="#DejaVuSans-2e" x="127.246094"/>
       <use xlink:href="#DejaVuSans-35" x="159.033203"/>
      </g>
     </g>
    </g>
    <g id="text_9">
     <!-- Time [s] -->
     <g transform="translate(138.236719 173.368419) scale(0.1 -0.1)">
      <defs>
       <path id="DejaVuSans-54" d="M -19 4666 
L 3928 4666 
L 3928 4134 
L 2272 4134 
L 2272 0 
L 1638 0 
L 1638 4134 
L -19 4134 
L -19 4666 
z
" transform="scale(0.015625)"/>
       <path id="DejaVuSans-69" d="M 603 3500 
L 1178 3500 
L 1178 0 
L 603 0 
L 603 3500 
z
M 603 4863 
L 1178 4863 
L 1178 4134 
L 603 4134 
L 603 4863 
z
" transform="scale(0.015625)"/>
       <path id="DejaVuSans-6d" d="M 3328 2828 
Q 3544 3216 3844 3400 
Q 4144 3584 4550 3584 
Q 5097 3584 5394 3201 
Q 5691 2819 5691 2113 
L 5691 0 
L 5113 0 
L 5113 2094 
Q 5113 2597 4934 2840 
Q 4756 3084 4391 3084 
Q 3944 3084 3684 2787 
Q 3425 2491 3425 1978 
L 3425 0 
L 2847 0 
L 2847 2094 
Q 2847 2600 2669 2842 
Q 2491 3084 2119 3084 
Q 1678 3084 1418 2786 
Q 1159 2488 1159 1978 
L 1159 0 
L 581 0 
L 581 3500 
L 1159 3500 
L 1159 2956 
Q 1356 3278 1631 3431 
Q 1906 3584 2284 3584 
Q 2666 3584 2933 3390 
Q 3200 3197 3328 2828 
z
" transform="scale(0.015625)"/>
       <path id="DejaVuSans-65" d="M 3597 1894 
L 3597 1613 
L 953 1613 
Q 991 1019 1311 708 
Q 1631 397 2203 397 
Q 2534 397 2845 478 
Q 3156 559 3463 722 
L 3463 178 
Q 3153 47 2828 -22 
Q 2503 -91 2169 -91 
Q 1331 -91 842 396 
Q 353 884 353 1716 
Q 353 2575 817 3079 
Q 1281 3584 2069 3584 
Q 2775 3584 3186 3129 
Q 3597 2675 3597 1894 
z
M 3022 2063 
Q 3016 2534 2758 2815 
Q 2500 3097 2075 3097 
Q 1594 3097 1305 2825 
Q 1016 2553 972 2059 
L 3022 2063 
z
" transform="scale(0.015625)"/>
       <path id="DejaVuSans-20" transform="scale(0.015625)"/>
       <path id="DejaVuSans-5b" d="M 550 4863 
L 1875 4863 
L 1875 4416 
L 1125 4416 
L 1125 -397 
L 1875 -397 
L 1875 -844 
L 550 -844 
L 550 4863 
z
" transform="scale(0.015625)"/>
       <path id="DejaVuSans-73" d="M 2834 3397 
L 2834 2853 
Q 2591 2978 2328 3040 
Q 2066 3103 1784 3103 
Q 1356 3103 1142 2972 
Q 928 2841 928 2578 
Q 928 2378 1081 2264 
Q 1234 2150 1697 2047 
L 1894 2003 
Q 2506 1872 2764 1633 
Q 3022 1394 3022 966 
Q 3022 478 2636 193 
Q 2250 -91 1575 -91 
Q 1294 -91 989 -36 
Q 684 19 347 128 
L 347 722 
Q 666 556 975 473 
Q 1284 391 1588 391 
Q 1994 391 2212 530 
Q 2431 669 2431 922 
Q 2431 1156 2273 1281 
Q 2116 1406 1581 1522 
L 1381 1569 
Q 847 1681 609 1914 
Q 372 2147 372 2553 
Q 372 3047 722 3315 
Q 1072 3584 1716 3584 
Q 2034 3584 2315 3537 
Q 2597 3491 2834 3397 
z
" transform="scale(0.015625)"/>
       <path id="DejaVuSans-5d" d="M 1947 4863 
L 1947 -844 
L 622 -844 
L 622 -397 
L 1369 -397 
L 1369 4416 
L 622 4416 
L 622 4863 
L 1947 4863 
z
" transform="scale(0.015625)"/>
      </defs>
      <use xlink:href="#DejaVuSans-54"/>
      <use xlink:href="#DejaVuSans-69" x="57.958984"/>
      <use xlink:href="#DejaVuSans-6d" x="85.742188"/>
      <use xlink:href="#DejaVuSans-65" x="183.154297"/>
      <use xlink:href="#DejaVuSans-20" x="244.677734"/>
      <use xlink:href="#DejaVuSans-5b" x="276.464844"/>
      <use xlink:href="#DejaVuSans-73" x="315.478516"/>
      <use xlink:href="#DejaVuSans-5d" x="367.578125"/>
     </g>
    </g>
   </g>
   <g id="matplotlib.axis_2">
    <g id="ytick_1">
     <g id="line2d_9">
      <defs>
       <path id="m07a3245496" d="M 0 0 
L -3.5 0 
" style="stroke: #000000; stroke-width: 0.8"/>
      </defs>
      <g>
       <use xlink:href="#m07a3245496" x="46.965625" y="140.245104" style="stroke: #000000; stroke-width: 0.8"/>
      </g>
     </g>
     <g id="text_10">
      <!-- 0 -->
      <g transform="translate(33.603125 144.044323) scale(0.1 -0.1)">
       <use xlink:href="#DejaVuSans-30"/>
      </g>
     </g>
    </g>
    <g id="ytick_2">
     <g id="line2d_10">
      <g>
       <use xlink:href="#m07a3245496" x="46.965625" y="115.504907" style="stroke: #000000; stroke-width: 0.8"/>
      </g>
     </g>
     <g id="text_11">
      <!-- 40 -->
      <g transform="translate(27.240625 119.304126) scale(0.1 -0.1)">
       <defs>
        <path id="DejaVuSans-34" d="M 2419 4116 
L 825 1625 
L 2419 1625 
L 2419 4116 
z
M 2253 4666 
L 3047 4666 
L 3047 1625 
L 3713 1625 
L 3713 1100 
L 3047 1100 
L 3047 0 
L 2419 0 
L 2419 1100 
L 313 1100 
L 313 1709 
L 2253 4666 
z
" transform="scale(0.015625)"/>
       </defs>
       <use xlink:href="#DejaVuSans-34"/>
       <use xlink:href="#DejaVuSans-30" x="63.623047"/>
      </g>
     </g>
    </g>
    <g id="ytick_3">
     <g id="line2d_11">
      <g>
       <use xlink:href="#m07a3245496" x="46.965625" y="90.764709" style="stroke: #000000; stroke-width: 0.8"/>
      </g>
     </g>
     <g id="text_12">
      <!-- 80 -->
      <g transform="translate(27.240625 94.563928) scale(0.1 -0.1)">
       <defs>
        <path id="DejaVuSans-38" d="M 2034 2216 
Q 1584 2216 1326 1975 
Q 1069 1734 1069 1313 
Q 1069 891 1326 650 
Q 1584 409 2034 409 
Q 2484 409 2743 651 
Q 3003 894 3003 1313 
Q 3003 1734 2745 1975 
Q 2488 2216 2034 2216 
z
M 1403 2484 
Q 997 2584 770 2862 
Q 544 3141 544 3541 
Q 544 4100 942 4425 
Q 1341 4750 2034 4750 
Q 2731 4750 3128 4425 
Q 3525 4100 3525 3541 
Q 3525 3141 3298 2862 
Q 3072 2584 2669 2484 
Q 3125 2378 3379 2068 
Q 3634 1759 3634 1313 
Q 3634 634 3220 271 
Q 2806 -91 2034 -91 
Q 1263 -91 848 271 
Q 434 634 434 1313 
Q 434 1759 690 2068 
Q 947 2378 1403 2484 
z
M 1172 3481 
Q 1172 3119 1398 2916 
Q 1625 2713 2034 2713 
Q 2441 2713 2670 2916 
Q 2900 3119 2900 3481 
Q 2900 3844 2670 4047 
Q 2441 4250 2034 4250 
Q 1625 4250 1398 4047 
Q 1172 3844 1172 3481 
z
" transform="scale(0.015625)"/>
       </defs>
       <use xlink:href="#DejaVuSans-38"/>
       <use xlink:href="#DejaVuSans-30" x="63.623047"/>
      </g>
     </g>
    </g>
    <g id="ytick_4">
     <g id="line2d_12">
      <g>
       <use xlink:href="#m07a3245496" x="46.965625" y="66.024512" style="stroke: #000000; stroke-width: 0.8"/>
      </g>
     </g>
     <g id="text_13">
      <!-- 120 -->
      <g transform="translate(20.878125 69.82373) scale(0.1 -0.1)">
       <use xlink:href="#DejaVuSans-31"/>
       <use xlink:href="#DejaVuSans-32" x="63.623047"/>
       <use xlink:href="#DejaVuSans-30" x="127.246094"/>
      </g>
     </g>
    </g>
    <g id="ytick_5">
     <g id="line2d_13">
      <g>
       <use xlink:href="#m07a3245496" x="46.965625" y="41.284314" style="stroke: #000000; stroke-width: 0.8"/>
      </g>
     </g>
     <g id="text_14">
      <!-- 160 -->
      <g transform="translate(20.878125 45.083533) scale(0.1 -0.1)">
       <defs>
        <path id="DejaVuSans-36" d="M 2113 2584 
Q 1688 2584 1439 2293 
Q 1191 2003 1191 1497 
Q 1191 994 1439 701 
Q 1688 409 2113 409 
Q 2538 409 2786 701 
Q 3034 994 3034 1497 
Q 3034 2003 2786 2293 
Q 2538 2584 2113 2584 
z
M 3366 4563 
L 3366 3988 
Q 3128 4100 2886 4159 
Q 2644 4219 2406 4219 
Q 1781 4219 1451 3797 
Q 1122 3375 1075 2522 
Q 1259 2794 1537 2939 
Q 1816 3084 2150 3084 
Q 2853 3084 3261 2657 
Q 3669 2231 3669 1497 
Q 3669 778 3244 343 
Q 2819 -91 2113 -91 
Q 1303 -91 875 529 
Q 447 1150 447 2328 
Q 447 3434 972 4092 
Q 1497 4750 2381 4750 
Q 2619 4750 2861 4703 
Q 3103 4656 3366 4563 
z
" transform="scale(0.015625)"/>
       </defs>
       <use xlink:href="#DejaVuSans-31"/>
       <use xlink:href="#DejaVuSans-36" x="63.623047"/>
       <use xlink:href="#DejaVuSans-30" x="127.246094"/>
      </g>
     </g>
    </g>
    <g id="text_15">
     <!-- Position [cm] -->
     <g transform="translate(14.798437 123.306075) rotate(-90) scale(0.1 -0.1)">
      <defs>
       <path id="DejaVuSans-50" d="M 1259 4147 
L 1259 2394 
L 2053 2394 
Q 2494 2394 2734 2622 
Q 2975 2850 2975 3272 
Q 2975 3691 2734 3919 
Q 2494 4147 2053 4147 
L 1259 4147 
z
M 628 4666 
L 2053 4666 
Q 2838 4666 3239 4311 
Q 3641 3956 3641 3272 
Q 3641 2581 3239 2228 
Q 2838 1875 2053 1875 
L 1259 1875 
L 1259 0 
L 628 0 
L 628 4666 
z
" transform="scale(0.015625)"/>
       <path id="DejaVuSans-6f" d="M 1959 3097 
Q 1497 3097 1228 2736 
Q 959 2375 959 1747 
Q 959 1119 1226 758 
Q 1494 397 1959 397 
Q 2419 397 2687 759 
Q 2956 1122 2956 1747 
Q 2956 2369 2687 2733 
Q 2419 3097 1959 3097 
z
M 1959 3584 
Q 2709 3584 3137 3096 
Q 3566 2609 3566 1747 
Q 3566 888 3137 398 
Q 2709 -91 1959 -91 
Q 1206 -91 779 398 
Q 353 888 353 1747 
Q 353 2609 779 3096 
Q 1206 3584 1959 3584 
z
" transform="scale(0.015625)"/>
       <path id="DejaVuSans-74" d="M 1172 4494 
L 1172 3500 
L 2356 3500 
L 2356 3053 
L 1172 3053 
L 1172 1153 
Q 1172 725 1289 603 
Q 1406 481 1766 481 
L 2356 481 
L 2356 0 
L 1766 0 
Q 1100 0 847 248 
Q 594 497 594 1153 
L 594 3053 
L 172 3053 
L 172 3500 
L 594 3500 
L 594 4494 
L 1172 4494 
z
" transform="scale(0.015625)"/>
       <path id="DejaVuSans-6e" d="M 3513 2113 
L 3513 0 
L 2938 0 
L 2938 2094 
Q 2938 2591 2744 2837 
Q 2550 3084 2163 3084 
Q 1697 3084 1428 2787 
Q 1159 2491 1159 1978 
L 1159 0 
L 581 0 
L 581 3500 
L 1159 3500 
L 1159 2956 
Q 1366 3272 1645 3428 
Q 1925 3584 2291 3584 
Q 2894 3584 3203 3211 
Q 3513 2838 3513 2113 
z
" transform="scale(0.015625)"/>
       <path id="DejaVuSans-63" d="M 3122 3366 
L 3122 2828 
Q 2878 2963 2633 3030 
Q 2388 3097 2138 3097 
Q 1578 3097 1268 2742 
Q 959 2388 959 1747 
Q 959 1106 1268 751 
Q 1578 397 2138 397 
Q 2388 397 2633 464 
Q 2878 531 3122 666 
L 3122 134 
Q 2881 22 2623 -34 
Q 2366 -91 2075 -91 
Q 1284 -91 818 406 
Q 353 903 353 1747 
Q 353 2603 823 3093 
Q 1294 3584 2113 3584 
Q 2378 3584 2631 3529 
Q 2884 3475 3122 3366 
z
" transform="scale(0.015625)"/>
      </defs>
      <use xlink:href="#DejaVuSans-50"/>
      <use xlink:href="#DejaVuSans-6f" x="56.677734"/>
      <use xlink:href="#DejaVuSans-73" x="117.859375"/>
      <use xlink:href="#DejaVuSans-69" x="169.958984"/>
      <use xlink:href="#DejaVuSans-74" x="197.742188"/>
      <use xlink:href="#DejaVuSans-69" x="236.951172"/>
      <use xlink:href="#DejaVuSans-6f" x="264.734375"/>
      <use xlink:href="#DejaVuSans-6e" x="325.916016"/>
      <use xlink:href="#DejaVuSans-20" x="389.294922"/>
      <use xlink:href="#DejaVuSans-5b" x="421.082031"/>
      <use xlink:href="#DejaVuSans-63" x="460.095703"/>
      <use xlink:href="#DejaVuSans-6d" x="515.076172"/>
      <use xlink:href="#DejaVuSans-5d" x="612.488281"/>
     </g>
    </g>
   </g>
   <g id="line2d_14">
    <path d="M 59.03049 138.673988 
L 59.633733 137.500363 
L 60.236976 136.784743 
L 62.649949 132.627952 
L 63.253193 130.950454 
L 63.856436 129.665032 
L 64.459679 127.939495 
L 65.062922 125.285914 
L 65.666166 123.839163 
L 66.269409 121.164088 
L 67.475895 117.197894 
L 68.682382 111.383979 
L 74.111571 87.913845 
L 74.714814 85.931394 
L 75.921301 80.838208 
L 76.524544 79.363261 
L 78.937517 67.657803 
L 79.54076 64.513423 
L 80.144003 62.231606 
L 81.35049 58.455669 
L 83.16022 52.03885 
L 83.763463 49.29128 
L 84.366706 47.509492 
L 85.573193 42.48095 
L 86.176436 41.856008 
L 86.779679 43.074719 
L 87.382922 44.546376 
L 87.986166 46.33377 
L 88.589409 47.569119 
L 89.192652 48.417827 
L 89.795895 49.693144 
L 90.399139 52.006526 
L 92.208868 60.772476 
L 94.018598 70.148098 
L 95.225084 75.640024 
L 95.828328 77.52236 
L 98.241301 88.835307 
L 100.05103 96.636391 
L 100.654274 98.576302 
L 101.257517 101.456379 
L 103.67049 110.997815 
L 104.273733 113.699173 
L 105.48022 117.85582 
L 107.289949 125.842862 
L 107.893193 127.562866 
L 108.496436 130.056302 
L 109.099679 131.962881 
L 109.702922 133.33432 
L 110.306166 135.334327 
L 110.909409 136.694166 
L 111.512652 138.335302 
L 112.115895 139.611343 
L 112.719139 139.57192 
L 113.322382 138.682147 
L 113.925625 138.437594 
L 114.528868 137.444851 
L 115.132111 135.579754 
L 116.338598 131.145318 
L 118.148328 125.640256 
L 118.751571 124.615291 
L 119.354814 122.8797 
L 121.164544 116.441512 
L 122.37103 112.259082 
L 122.974274 109.813573 
L 123.577517 107.951879 
L 124.784003 102.752678 
L 126.593733 93.794148 
L 127.80022 88.690817 
L 131.419679 74.020054 
L 132.022922 71.132505 
L 132.626166 69.039171 
L 134.435895 60.513574 
L 136.848868 49.903047 
L 138.658598 43.58286 
L 139.261841 41.313674 
L 139.865084 43.375902 
L 140.468328 46.375607 
L 142.881301 55.837791 
L 143.484544 58.245408 
L 145.897517 71.149847 
L 147.104003 76.25793 
L 148.31049 82.675036 
L 150.723463 94.352195 
L 151.326706 96.378555 
L 151.929949 99.567518 
L 153.136436 104.829038 
L 155.549409 114.847729 
L 156.152652 117.094554 
L 157.962382 125.147602 
L 159.168868 129.919915 
L 159.772111 131.68952 
L 160.375355 133.964638 
L 161.581841 137.146332 
L 162.185084 139.382265 
L 162.788328 139.559232 
L 163.391571 138.253756 
L 164.598057 136.746303 
L 165.201301 136.372026 
L 165.804544 135.616451 
L 166.407787 134.377683 
L 167.614274 132.695934 
L 168.82076 130.980555 
L 170.027247 129.579873 
L 170.63049 129.184733 
L 171.836976 126.963243 
L 172.44022 125.758725 
L 173.043463 123.818465 
L 173.646706 122.855404 
L 174.249949 121.424505 
L 175.456436 117.34681 
L 176.059679 115.622965 
L 177.266166 110.766741 
L 183.298598 89.418105 
L 183.901841 87.379155 
L 185.711571 79.535267 
L 186.314814 75.771311 
L 188.124544 67.198034 
L 188.727787 63.235331 
L 191.14076 51.199533 
L 193.553733 41.346848 
L 194.156976 44.850608 
L 195.363463 49.464602 
L 198.982922 67.682265 
L 200.792652 78.508867 
L 201.395895 82.153442 
L 202.602382 88.053158 
L 203.808868 95.064921 
L 205.015355 101.779679 
L 206.221841 107.694402 
L 207.428328 112.831949 
L 208.031571 116.022882 
L 211.047787 128.84873 
L 211.65103 130.637681 
L 213.46076 138.815057 
L 214.064003 139.607115 
L 214.667247 140.150038 
L 215.27049 138.775118 
L 215.873733 138.292859 
L 216.476976 137.254206 
L 217.08022 136.585903 
L 218.286706 134.341304 
L 218.889949 132.700299 
L 219.493193 130.145981 
L 221.302922 124.598909 
L 221.906166 122.922098 
L 224.319139 113.605906 
L 224.922382 110.992617 
L 226.128868 104.678369 
L 227.335355 99.491701 
L 229.748328 88.413766 
L 230.954814 83.031288 
L 231.558057 81.101707 
L 232.764544 74.377716 
L 234.574274 68.275289 
L 235.177517 66.411341 
L 235.78076 63.788438 
L 236.384003 61.975506 
L 236.987247 59.692764 
L 238.193733 53.645079 
L 240.003463 44.256575 
L 240.606706 41.95214 
L 241.209949 42.028641 
L 241.813193 43.136592 
L 243.019679 47.756447 
L 244.226166 53.920101 
L 249.655355 84.884203 
L 250.258598 88.038889 
L 251.465084 92.969204 
L 252.068328 95.857895 
L 252.671571 98.174537 
L 253.878057 103.743061 
L 255.084544 108.769275 
L 256.29103 112.436302 
L 258.10076 120.139308 
L 258.704003 122.135073 
L 259.307247 124.743401 
L 259.91049 126.778077 
L 260.513733 128.081321 
L 261.72022 133.142083 
L 262.323463 135.121461 
L 263.529949 139.437966 
L 264.133193 139.898302 
L 264.736436 139.072707 
L 265.339679 137.855198 
L 265.942922 136.998082 
L 266.546166 136.492806 
L 267.149409 136.650452 
L 267.752652 134.971957 
L 268.355895 132.529336 
L 268.959139 131.42328 
L 269.562382 131.223237 
L 269.562382 131.223237 
" clip-path="url(#p7ec2d4b243)" style="fill: none; stroke: #000000; stroke-width: 2; stroke-linecap: square"/>
   </g>
   <g id="line2d_15">
    <path d="M 59.03049 136.101211 
L 59.633733 136.536056 
L 60.236976 137.178425 
L 60.84022 136.472968 
L 61.443463 136.189883 
L 62.649949 136.445723 
L 63.253193 134.448059 
L 63.856436 134.541607 
L 64.459679 133.683278 
L 65.062922 130.331566 
L 65.666166 124.038258 
L 66.269409 124.044815 
L 66.872652 124.162734 
L 67.475895 123.099656 
L 68.079139 118.502902 
L 68.682382 115.996721 
L 69.285625 111.946201 
L 69.888868 112.261321 
L 70.492111 112.904659 
L 71.095355 109.637597 
L 71.698598 107.806193 
L 72.301841 105.167309 
L 72.905084 101.074622 
L 73.508328 103.305971 
L 74.111571 97.290755 
L 74.714814 85.421549 
L 75.318057 90.710212 
L 75.921301 101.782461 
L 76.524544 100.327744 
L 77.127787 94.602463 
L 77.73103 91.325899 
L 78.334274 87.044006 
L 78.937517 88.827266 
L 79.54076 87.108357 
L 80.144003 83.585197 
L 80.747247 81.061691 
L 81.35049 73.739473 
L 81.953733 70.242814 
L 82.556976 66.063843 
L 83.16022 48.13382 
L 83.763463 43.12471 
L 84.366706 42.362432 
L 84.969949 43.013799 
L 85.573193 42.532894 
L 86.176436 45.28925 
L 86.779679 51.388417 
L 87.382922 50.323541 
L 87.986166 52.378416 
L 88.589409 49.928915 
L 89.192652 49.189703 
L 89.795895 50.406243 
L 90.399139 44.534985 
L 91.002382 42.423257 
L 91.605625 46.519116 
L 92.208868 54.083731 
L 92.812111 56.561309 
L 93.415355 62.877239 
L 94.018598 62.889569 
L 94.621841 59.935301 
L 95.225084 61.991904 
L 95.828328 68.691569 
L 96.431571 79.909412 
L 97.034814 95.59761 
L 97.638057 99.123232 
L 98.241301 99.748424 
L 98.844544 105.611751 
L 99.447787 106.805711 
L 100.05103 90.956057 
L 100.654274 93.911604 
L 101.86076 106.048204 
L 102.464003 112.248467 
L 103.067247 111.461788 
L 103.67049 107.303086 
L 104.273733 106.921379 
L 104.876976 101.299768 
L 105.48022 99.381762 
L 106.083463 96.697552 
L 106.686706 109.917493 
L 107.289949 112.887076 
L 107.893193 114.561771 
L 108.496436 117.260468 
L 109.099679 124.218054 
L 109.702922 125.673 
L 110.306166 126.315115 
L 110.909409 133.945945 
L 111.512652 132.406433 
L 112.115895 133.301012 
L 112.719139 136.853157 
L 113.322382 136.337205 
L 113.925625 135.382738 
L 114.528868 135.854976 
L 115.735355 133.520046 
L 116.338598 130.133424 
L 116.941841 129.564688 
L 117.545084 129.577921 
L 118.148328 128.138836 
L 118.751571 129.807291 
L 119.354814 129.373004 
L 120.561301 119.426981 
L 121.164544 114.565687 
L 121.767787 107.935073 
L 122.37103 107.851762 
L 122.974274 105.52749 
L 123.577517 104.51372 
L 124.18076 100.543545 
L 124.784003 97.717246 
L 125.387247 94.356032 
L 125.99049 97.705605 
L 126.593733 97.768752 
L 127.196976 96.447214 
L 129.006706 82.961926 
L 129.609949 80.928701 
L 130.213193 83.214383 
L 130.816436 88.543321 
L 131.419679 85.255168 
L 132.022922 74.332831 
L 132.626166 68.144002 
L 133.229409 60.345282 
L 133.832652 50.869026 
L 134.435895 51.755268 
L 135.642382 57.528525 
L 136.848868 44.287879 
L 137.452111 64.021722 
L 138.055355 58.68557 
L 138.658598 49.166288 
L 139.261841 47.7814 
L 139.865084 45.582912 
L 140.468328 42.395369 
L 141.071571 44.02826 
L 141.674814 46.612681 
L 142.278057 47.654841 
L 142.881301 49.285504 
L 143.484544 56.804309 
L 144.087787 59.124137 
L 145.294274 61.597161 
L 145.897517 64.704535 
L 147.104003 69.772579 
L 147.707247 74.448234 
L 148.31049 84.921953 
L 148.913733 88.688283 
L 149.516976 93.914181 
L 150.12022 94.382061 
L 150.723463 96.663963 
L 151.326706 96.623282 
L 151.929949 93.05629 
L 153.136436 103.712762 
L 153.739679 105.813813 
L 154.342922 105.029782 
L 154.946166 105.065534 
L 155.549409 107.42872 
L 156.152652 111.120384 
L 156.755895 119.349245 
L 157.359139 122.40853 
L 157.962382 120.786189 
L 158.565625 119.508876 
L 159.168868 117.623805 
L 159.772111 122.960333 
L 160.375355 131.793593 
L 161.581841 133.609042 
L 162.185084 136.927336 
L 162.788328 138.82039 
L 163.391571 135.649327 
L 163.994814 134.983682 
L 165.201301 137.7196 
L 165.804544 136.499694 
L 166.407787 133.47488 
L 167.01103 133.600536 
L 167.614274 129.82509 
L 168.217517 134.415141 
L 168.82076 134.652058 
L 169.424003 133.816277 
L 170.027247 138.639178 
L 170.63049 135.479365 
L 171.233733 133.60274 
L 172.44022 122.810477 
L 173.043463 125.575458 
L 173.646706 131.189243 
L 174.249949 129.964831 
L 174.853193 123.968989 
L 175.456436 120.242355 
L 176.059679 112.627353 
L 176.662922 106.479398 
L 177.266166 105.370657 
L 177.869409 103.698376 
L 178.472652 101.165674 
L 179.075895 101.778622 
L 179.679139 98.99446 
L 180.282382 92.734396 
L 180.885625 88.162998 
L 181.488868 87.762828 
L 182.092111 89.12081 
L 182.695355 92.319947 
L 183.298598 88.993685 
L 183.901841 90.048869 
L 184.505084 85.701969 
L 185.108328 86.773698 
L 185.711571 77.42361 
L 186.314814 71.004389 
L 186.918057 70.646773 
L 187.521301 74.536665 
L 188.124544 76.462042 
L 188.727787 69.88676 
L 189.33103 57.855152 
L 189.934274 50.824434 
L 190.537517 52.516753 
L 191.14076 50.772546 
L 191.744003 49.727554 
L 192.347247 42.928218 
L 192.95049 43.097265 
L 193.553733 42.485093 
L 194.156976 44.238804 
L 194.76022 46.376542 
L 195.363463 48.05863 
L 195.966706 50.718449 
L 196.569949 56.196855 
L 197.173193 56.761179 
L 197.776436 56.349188 
L 199.586166 74.039198 
L 200.189409 75.93722 
L 200.792652 81.23927 
L 201.999139 86.960908 
L 202.602382 88.930387 
L 203.205625 90.347618 
L 203.808868 93.171877 
L 205.015355 103.055166 
L 205.618598 105.1355 
L 206.221841 106.15795 
L 206.825084 107.487113 
L 208.031571 115.132443 
L 208.634814 120.459431 
L 209.238057 120.977636 
L 209.841301 121.73161 
L 210.444544 123.896124 
L 211.047787 126.604311 
L 211.65103 124.434667 
L 212.254274 127.070286 
L 212.857517 128.579211 
L 213.46076 136.375983 
L 214.064003 137.472363 
L 214.667247 137.69566 
L 215.27049 138.288575 
L 215.873733 138.630644 
L 216.476976 136.421251 
L 217.08022 134.887717 
L 217.683463 135.392605 
L 218.286706 134.122937 
L 218.889949 133.879157 
L 219.493193 132.848473 
L 220.096436 133.385213 
L 220.699679 127.602519 
L 221.302922 125.846919 
L 222.509409 123.650783 
L 223.112652 121.545159 
L 223.715895 117.162687 
L 224.319139 115.402089 
L 224.922382 107.679105 
L 225.525625 105.598737 
L 226.128868 99.521052 
L 226.732111 99.169826 
L 227.335355 95.629065 
L 228.541841 92.170053 
L 229.145084 88.776133 
L 229.748328 86.809707 
L 230.351571 86.074157 
L 232.161301 85.381972 
L 232.764544 80.481182 
L 233.367787 77.601368 
L 233.97103 69.97764 
L 234.574274 72.335936 
L 235.78076 63.706727 
L 236.987247 53.587264 
L 237.59049 53.934107 
L 238.193733 53.059813 
L 238.796976 51.360501 
L 239.40022 50.559198 
L 240.606706 42.128935 
L 241.209949 42.273954 
L 242.416436 44.680551 
L 243.019679 43.363869 
L 243.622922 43.001331 
L 244.829409 51.064036 
L 245.432652 51.268625 
L 246.035895 54.890913 
L 247.242382 73.770933 
L 247.845625 76.649577 
L 248.448868 75.067282 
L 249.052111 77.844292 
L 250.258598 89.252352 
L 250.861841 93.187233 
L 251.465084 93.43272 
L 252.068328 92.986923 
L 252.671571 100.245065 
L 253.274814 103.289312 
L 253.878057 108.276022 
L 254.481301 110.228994 
L 255.687787 113.212812 
L 256.894274 117.241038 
L 257.497517 111.439994 
L 258.704003 116.530521 
L 259.307247 123.650333 
L 259.91049 125.068967 
L 260.513733 128.344559 
L 261.116976 132.434551 
L 261.72022 131.216706 
L 262.323463 131.595284 
L 262.926706 134.709851 
L 263.529949 134.215918 
L 264.133193 138.21486 
L 264.736436 134.086695 
L 265.339679 136.226043 
L 265.942922 136.747905 
L 266.546166 134.490798 
L 267.149409 133.149485 
L 267.752652 135.113069 
L 268.355895 134.134392 
L 268.959139 135.002233 
L 269.562382 135.520489 
L 269.562382 135.520489 
" clip-path="url(#p7ec2d4b243)" style="fill: none; stroke: #6235e0; stroke-width: 2; stroke-linecap: square"/>
   </g>
   <g id="line2d_16">
    <path d="M 59.633733 91.656372 
L 62.649949 89.760837 
L 65.666166 99.809575 
L 68.682382 94.514881 
L 71.698598 97.705525 
L 74.714814 104.890761 
L 77.73103 101.196275 
L 80.747247 98.865519 
L 83.763463 83.710652 
L 86.779679 99.25761 
L 89.795895 94.188637 
L 92.812111 98.773049 
L 95.828328 87.960957 
L 98.844544 95.56689 
L 101.86076 93.78245 
L 104.876976 103.284213 
L 107.893193 102.894264 
L 110.909409 102.173481 
L 113.925625 104.075493 
L 116.941841 97.108457 
L 119.958057 91.008082 
L 122.974274 89.120338 
L 125.99049 101.191705 
L 129.006706 96.983673 
L 132.022922 94.099607 
L 135.039139 92.154698 
L 138.055355 98.220098 
L 141.071571 105.203024 
L 144.087787 95.901535 
L 147.104003 88.803389 
L 150.12022 95.543895 
L 153.136436 90.09324 
L 156.152652 104.995735 
L 159.168868 88.391625 
L 162.185084 104.291334 
L 165.201301 99.8021 
L 168.217517 109.502605 
L 171.233733 96.543836 
L 174.249949 96.699298 
L 177.266166 93.876921 
L 180.282382 94.339903 
L 183.298598 96.546168 
L 186.314814 99.859184 
L 189.33103 89.86979 
L 192.347247 97.783843 
L 195.363463 85.235245 
L 198.379679 91.549902 
L 201.395895 93.827463 
L 204.412111 99.966225 
L 207.428328 102.50872 
L 210.444544 103.51552 
L 213.46076 100.356755 
L 216.476976 91.558726 
L 219.493193 97.10095 
L 222.509409 91.242287 
L 225.525625 105.50667 
L 228.541841 90.292389 
L 231.558057 95.223077 
L 234.574274 102.280383 
L 237.59049 105.792916 
L 240.606706 98.905322 
L 243.622922 97.909477 
L 246.639139 102.400937 
L 249.655355 91.628824 
L 252.671571 92.35832 
L 255.687787 92.87974 
L 258.704003 95.422556 
L 261.72022 101.057313 
L 264.736436 101.699216 
L 267.752652 108.185951 
" clip-path="url(#p7ec2d4b243)" style="fill: none; stroke-dasharray: 7.4,3.2; stroke-dashoffset: 0; stroke: #808080; stroke-width: 2"/>
   </g>
   <g id="patch_3">
    <path d="M 46.965625 140.245104 
L 46.965625 41.284314 
" style="fill: none; stroke: #000000; stroke-width: 0.8; stroke-linejoin: miter; stroke-linecap: square"/>
   </g>
   <g id="patch_4">
    <path d="M 59.03049 145.091856 
L 270.165625 145.091856 
" style="fill: none; stroke: #000000; stroke-width: 0.8; stroke-linejoin: miter; stroke-linecap: square"/>
   </g>
   <g id="legend_1">
    <g id="line2d_17">
     <path d="M 183.661625 12.820316 
L 188.866625 12.820316 
L 194.071625 12.820316 
" style="fill: none; stroke: #000000; stroke-width: 2; stroke-linecap: square"/>
    </g>
    <g id="text_16">
     <!-- Ground Truth -->
     <g transform="translate(199.623625 15.249316) scale(0.0694 -0.0694)">
      <defs>
       <path id="DejaVuSans-47" d="M 3809 666 
L 3809 1919 
L 2778 1919 
L 2778 2438 
L 4434 2438 
L 4434 434 
Q 4069 175 3628 42 
Q 3188 -91 2688 -91 
Q 1594 -91 976 548 
Q 359 1188 359 2328 
Q 359 3472 976 4111 
Q 1594 4750 2688 4750 
Q 3144 4750 3555 4637 
Q 3966 4525 4313 4306 
L 4313 3634 
Q 3963 3931 3569 4081 
Q 3175 4231 2741 4231 
Q 1884 4231 1454 3753 
Q 1025 3275 1025 2328 
Q 1025 1384 1454 906 
Q 1884 428 2741 428 
Q 3075 428 3337 486 
Q 3600 544 3809 666 
z
" transform="scale(0.015625)"/>
       <path id="DejaVuSans-72" d="M 2631 2963 
Q 2534 3019 2420 3045 
Q 2306 3072 2169 3072 
Q 1681 3072 1420 2755 
Q 1159 2438 1159 1844 
L 1159 0 
L 581 0 
L 581 3500 
L 1159 3500 
L 1159 2956 
Q 1341 3275 1631 3429 
Q 1922 3584 2338 3584 
Q 2397 3584 2469 3576 
Q 2541 3569 2628 3553 
L 2631 2963 
z
" transform="scale(0.015625)"/>
       <path id="DejaVuSans-75" d="M 544 1381 
L 544 3500 
L 1119 3500 
L 1119 1403 
Q 1119 906 1312 657 
Q 1506 409 1894 409 
Q 2359 409 2629 706 
Q 2900 1003 2900 1516 
L 2900 3500 
L 3475 3500 
L 3475 0 
L 2900 0 
L 2900 538 
Q 2691 219 2414 64 
Q 2138 -91 1772 -91 
Q 1169 -91 856 284 
Q 544 659 544 1381 
z
M 1991 3584 
L 1991 3584 
z
" transform="scale(0.015625)"/>
       <path id="DejaVuSans-64" d="M 2906 2969 
L 2906 4863 
L 3481 4863 
L 3481 0 
L 2906 0 
L 2906 525 
Q 2725 213 2448 61 
Q 2172 -91 1784 -91 
Q 1150 -91 751 415 
Q 353 922 353 1747 
Q 353 2572 751 3078 
Q 1150 3584 1784 3584 
Q 2172 3584 2448 3432 
Q 2725 3281 2906 2969 
z
M 947 1747 
Q 947 1113 1208 752 
Q 1469 391 1925 391 
Q 2381 391 2643 752 
Q 2906 1113 2906 1747 
Q 2906 2381 2643 2742 
Q 2381 3103 1925 3103 
Q 1469 3103 1208 2742 
Q 947 2381 947 1747 
z
" transform="scale(0.015625)"/>
       <path id="DejaVuSans-68" d="M 3513 2113 
L 3513 0 
L 2938 0 
L 2938 2094 
Q 2938 2591 2744 2837 
Q 2550 3084 2163 3084 
Q 1697 3084 1428 2787 
Q 1159 2491 1159 1978 
L 1159 0 
L 581 0 
L 581 4863 
L 1159 4863 
L 1159 2956 
Q 1366 3272 1645 3428 
Q 1925 3584 2291 3584 
Q 2894 3584 3203 3211 
Q 3513 2838 3513 2113 
z
" transform="scale(0.015625)"/>
      </defs>
      <use xlink:href="#DejaVuSans-47"/>
      <use xlink:href="#DejaVuSans-72" x="77.490234"/>
      <use xlink:href="#DejaVuSans-6f" x="116.353516"/>
      <use xlink:href="#DejaVuSans-75" x="177.535156"/>
      <use xlink:href="#DejaVuSans-6e" x="240.914062"/>
      <use xlink:href="#DejaVuSans-64" x="304.292969"/>
      <use xlink:href="#DejaVuSans-20" x="367.769531"/>
      <use xlink:href="#DejaVuSans-54" x="399.556641"/>
      <use xlink:href="#DejaVuSans-72" x="445.890625"/>
      <use xlink:href="#DejaVuSans-75" x="487.003906"/>
      <use xlink:href="#DejaVuSans-74" x="550.382812"/>
      <use xlink:href="#DejaVuSans-68" x="589.591797"/>
     </g>
    </g>
    <g id="line2d_18">
     <path d="M 183.661625 21.271934 
L 188.866625 21.271934 
L 194.071625 21.271934 
" style="fill: none; stroke: #6235e0; stroke-width: 2; stroke-linecap: square"/>
    </g>
    <g id="text_17">
     <!-- CEBRA-Behavior -->
     <g transform="translate(199.623625 23.700934) scale(0.0694 -0.0694)">
      <defs>
       <path id="DejaVuSans-43" d="M 4122 4306 
L 4122 3641 
Q 3803 3938 3442 4084 
Q 3081 4231 2675 4231 
Q 1875 4231 1450 3742 
Q 1025 3253 1025 2328 
Q 1025 1406 1450 917 
Q 1875 428 2675 428 
Q 3081 428 3442 575 
Q 3803 722 4122 1019 
L 4122 359 
Q 3791 134 3420 21 
Q 3050 -91 2638 -91 
Q 1578 -91 968 557 
Q 359 1206 359 2328 
Q 359 3453 968 4101 
Q 1578 4750 2638 4750 
Q 3056 4750 3426 4639 
Q 3797 4528 4122 4306 
z
" transform="scale(0.015625)"/>
       <path id="DejaVuSans-45" d="M 628 4666 
L 3578 4666 
L 3578 4134 
L 1259 4134 
L 1259 2753 
L 3481 2753 
L 3481 2222 
L 1259 2222 
L 1259 531 
L 3634 531 
L 3634 0 
L 628 0 
L 628 4666 
z
" transform="scale(0.015625)"/>
       <path id="DejaVuSans-42" d="M 1259 2228 
L 1259 519 
L 2272 519 
Q 2781 519 3026 730 
Q 3272 941 3272 1375 
Q 3272 1813 3026 2020 
Q 2781 2228 2272 2228 
L 1259 2228 
z
M 1259 4147 
L 1259 2741 
L 2194 2741 
Q 2656 2741 2882 2914 
Q 3109 3088 3109 3444 
Q 3109 3797 2882 3972 
Q 2656 4147 2194 4147 
L 1259 4147 
z
M 628 4666 
L 2241 4666 
Q 2963 4666 3353 4366 
Q 3744 4066 3744 3513 
Q 3744 3084 3544 2831 
Q 3344 2578 2956 2516 
Q 3422 2416 3680 2098 
Q 3938 1781 3938 1306 
Q 3938 681 3513 340 
Q 3088 0 2303 0 
L 628 0 
L 628 4666 
z
" transform="scale(0.015625)"/>
       <path id="DejaVuSans-52" d="M 2841 2188 
Q 3044 2119 3236 1894 
Q 3428 1669 3622 1275 
L 4263 0 
L 3584 0 
L 2988 1197 
Q 2756 1666 2539 1819 
Q 2322 1972 1947 1972 
L 1259 1972 
L 1259 0 
L 628 0 
L 628 4666 
L 2053 4666 
Q 2853 4666 3247 4331 
Q 3641 3997 3641 3322 
Q 3641 2881 3436 2590 
Q 3231 2300 2841 2188 
z
M 1259 4147 
L 1259 2491 
L 2053 2491 
Q 2509 2491 2742 2702 
Q 2975 2913 2975 3322 
Q 2975 3731 2742 3939 
Q 2509 4147 2053 4147 
L 1259 4147 
z
" transform="scale(0.015625)"/>
       <path id="DejaVuSans-41" d="M 2188 4044 
L 1331 1722 
L 3047 1722 
L 2188 4044 
z
M 1831 4666 
L 2547 4666 
L 4325 0 
L 3669 0 
L 3244 1197 
L 1141 1197 
L 716 0 
L 50 0 
L 1831 4666 
z
" transform="scale(0.015625)"/>
       <path id="DejaVuSans-2d" d="M 313 2009 
L 1997 2009 
L 1997 1497 
L 313 1497 
L 313 2009 
z
" transform="scale(0.015625)"/>
       <path id="DejaVuSans-61" d="M 2194 1759 
Q 1497 1759 1228 1600 
Q 959 1441 959 1056 
Q 959 750 1161 570 
Q 1363 391 1709 391 
Q 2188 391 2477 730 
Q 2766 1069 2766 1631 
L 2766 1759 
L 2194 1759 
z
M 3341 1997 
L 3341 0 
L 2766 0 
L 2766 531 
Q 2569 213 2275 61 
Q 1981 -91 1556 -91 
Q 1019 -91 701 211 
Q 384 513 384 1019 
Q 384 1609 779 1909 
Q 1175 2209 1959 2209 
L 2766 2209 
L 2766 2266 
Q 2766 2663 2505 2880 
Q 2244 3097 1772 3097 
Q 1472 3097 1187 3025 
Q 903 2953 641 2809 
L 641 3341 
Q 956 3463 1253 3523 
Q 1550 3584 1831 3584 
Q 2591 3584 2966 3190 
Q 3341 2797 3341 1997 
z
" transform="scale(0.015625)"/>
       <path id="DejaVuSans-76" d="M 191 3500 
L 800 3500 
L 1894 563 
L 2988 3500 
L 3597 3500 
L 2284 0 
L 1503 0 
L 191 3500 
z
" transform="scale(0.015625)"/>
      </defs>
      <use xlink:href="#DejaVuSans-43"/>
      <use xlink:href="#DejaVuSans-45" x="69.824219"/>
      <use xlink:href="#DejaVuSans-42" x="133.007812"/>
      <use xlink:href="#DejaVuSans-52" x="201.611328"/>
      <use xlink:href="#DejaVuSans-41" x="267.09375"/>
      <use xlink:href="#DejaVuSans-2d" x="333.251953"/>
      <use xlink:href="#DejaVuSans-42" x="365.710938"/>
      <use xlink:href="#DejaVuSans-65" x="434.314453"/>
      <use xlink:href="#DejaVuSans-68" x="495.837891"/>
      <use xlink:href="#DejaVuSans-61" x="559.216797"/>
      <use xlink:href="#DejaVuSans-76" x="620.496094"/>
      <use xlink:href="#DejaVuSans-69" x="679.675781"/>
      <use xlink:href="#DejaVuSans-6f" x="707.458984"/>
      <use xlink:href="#DejaVuSans-72" x="768.640625"/>
     </g>
    </g>
    <g id="line2d_19">
     <path d="M 183.661625 29.723553 
L 188.866625 29.723553 
L 194.071625 29.723553 
" style="fill: none; stroke-dasharray: 7.4,3.2; stroke-dashoffset: 0; stroke: #808080; stroke-width: 2"/>
    </g>
    <g id="text_18">
     <!-- CEBRA-Shuffle -->
     <g transform="translate(199.623625 32.152553) scale(0.0694 -0.0694)">
      <defs>
       <path id="DejaVuSans-53" d="M 3425 4513 
L 3425 3897 
Q 3066 4069 2747 4153 
Q 2428 4238 2131 4238 
Q 1616 4238 1336 4038 
Q 1056 3838 1056 3469 
Q 1056 3159 1242 3001 
Q 1428 2844 1947 2747 
L 2328 2669 
Q 3034 2534 3370 2195 
Q 3706 1856 3706 1288 
Q 3706 609 3251 259 
Q 2797 -91 1919 -91 
Q 1588 -91 1214 -16 
Q 841 59 441 206 
L 441 856 
Q 825 641 1194 531 
Q 1563 422 1919 422 
Q 2459 422 2753 634 
Q 3047 847 3047 1241 
Q 3047 1584 2836 1778 
Q 2625 1972 2144 2069 
L 1759 2144 
Q 1053 2284 737 2584 
Q 422 2884 422 3419 
Q 422 4038 858 4394 
Q 1294 4750 2059 4750 
Q 2388 4750 2728 4690 
Q 3069 4631 3425 4513 
z
" transform="scale(0.015625)"/>
       <path id="DejaVuSans-66" d="M 2375 4863 
L 2375 4384 
L 1825 4384 
Q 1516 4384 1395 4259 
Q 1275 4134 1275 3809 
L 1275 3500 
L 2222 3500 
L 2222 3053 
L 1275 3053 
L 1275 0 
L 697 0 
L 697 3053 
L 147 3053 
L 147 3500 
L 697 3500 
L 697 3744 
Q 697 4328 969 4595 
Q 1241 4863 1831 4863 
L 2375 4863 
z
" transform="scale(0.015625)"/>
       <path id="DejaVuSans-6c" d="M 603 4863 
L 1178 4863 
L 1178 0 
L 603 0 
L 603 4863 
z
" transform="scale(0.015625)"/>
      </defs>
      <use xlink:href="#DejaVuSans-43"/>
      <use xlink:href="#DejaVuSans-45" x="69.824219"/>
      <use xlink:href="#DejaVuSans-42" x="133.007812"/>
      <use xlink:href="#DejaVuSans-52" x="201.611328"/>
      <use xlink:href="#DejaVuSans-41" x="267.09375"/>
      <use xlink:href="#DejaVuSans-2d" x="333.251953"/>
      <use xlink:href="#DejaVuSans-53" x="369.335938"/>
      <use xlink:href="#DejaVuSans-68" x="432.8125"/>
      <use xlink:href="#DejaVuSans-75" x="496.191406"/>
      <use xlink:href="#DejaVuSans-66" x="559.570312"/>
      <use xlink:href="#DejaVuSans-66" x="594.775391"/>
      <use xlink:href="#DejaVuSans-6c" x="629.980469"/>
      <use xlink:href="#DejaVuSans-65" x="657.763672"/>
     </g>
    </g>
   </g>
  </g>
 </g>
 <defs>
  <clipPath id="p7ec2d4b243">
   <rect x="46.965625" y="36.371856" width="223.2" height="108.72"/>
  </clipPath>
 </defs>
</svg>
